<?xml version="1.0" encoding="UTF-8" standalone="no"?>
<!DOCTYPE svg PUBLIC "-//W3C//DTD SVG 1.1//EN"
 "http://www.w3.org/Graphics/SVG/1.1/DTD/svg11.dtd">
<!-- Generated by graphviz version 2.43.0 (0)
 -->
<!-- Title: %3 Pages: 1 -->
<svg width="1436pt" height="1950pt"
 viewBox="0.00 0.00 1436.10 1950.10" xmlns="http://www.w3.org/2000/svg" xmlns:xlink="http://www.w3.org/1999/xlink">
<g id="graph0" class="graph" transform="scale(1 1) rotate(0) translate(15.05 1935.05)">
<title>%3</title>
<!-- playwright_rs_site -->
<g id="node1" class="node">
<title>playwright_rs_site</title>
<polygon fill="#ce422b" stroke="#a11309" stroke-width="0" points="338.5,-180 18.5,-180 18.5,0 338.5,0 338.5,-180"/>
<text text-anchor="start" x="103.5" y="-94" font-family="Arial" font-size="20.00" fill="#fffffa">playwright&#45;rs&#45;site</text>
<text text-anchor="start" x="143.5" y="-73.6" font-family="Arial" font-size="13.00" fill="#ffffe5">binary crate</text>
</g>
<!-- playwright_rs_site_e2e -->
<g id="node2" class="node">
<title>playwright_rs_site_e2e</title>
<polygon fill="#ce422b" stroke="#a11309" stroke-width="0" points="338.5,-1630 18.5,-1630 18.5,-1450 338.5,-1450 338.5,-1630"/>
<text text-anchor="start" x="82.5" y="-1544" font-family="Arial" font-size="20.00" fill="#fffffa">playwright&#45;rs&#45;site&#45;e2e</text>
<text text-anchor="start" x="150.5" y="-1523.6" font-family="Arial" font-size="13.00" fill="#ffffe5">test crate</text>
</g>
<!-- playwright_rs -->
<g id="node3" class="node">
<title>playwright_rs</title>
<polygon fill="#ce422b" stroke="#a11309" stroke-width="0" points="921,-1195 601,-1195 601,-1015 921,-1015 921,-1195"/>
<text text-anchor="start" x="704.5" y="-1128" font-family="Arial" font-size="20.00" fill="#fffffa">playwright&#45;rs</text>
<text text-anchor="start" x="692.5" y="-1107.6" font-family="Arial" font-size="13.00" fill="#ffffe5">library and binary crate</text>
<text text-anchor="start" x="632" y="-1088" font-family="Arial" font-size="15.00" fill="#ffffe5">playwright: High&#45;level Rust bindings for</text>
<text text-anchor="start" x="694" y="-1071" font-family="Arial" font-size="15.00" fill="#ffffe5">Microsoft Playwright</text>
</g>
<!-- playwright_rs_fuzz -->
<g id="node4" class="node">
<title>playwright_rs_fuzz</title>
<polygon fill="#ce422b" stroke="#a11309" stroke-width="0" points="338.5,-470 18.5,-470 18.5,-290 338.5,-290 338.5,-470"/>
<text text-anchor="start" x="100.5" y="-384" font-family="Arial" font-size="20.00" fill="#fffffa">playwright&#45;rs&#45;fuzz</text>
<text text-anchor="start" x="143.5" y="-363.6" font-family="Arial" font-size="13.00" fill="#ffffe5">binary crate</text>
</g>
<!-- xtask -->
<g id="node5" class="node">
<title>xtask</title>
<polygon fill="#ce422b" stroke="#a11309" stroke-width="0" points="341.5,-1340 15.5,-1340 15.5,-1160 341.5,-1160 341.5,-1340"/>
<text text-anchor="start" x="155.5" y="-1273" font-family="Arial" font-size="20.00" fill="#fffffa">xtask</text>
<text text-anchor="start" x="143" y="-1252.6" font-family="Arial" font-size="13.00" fill="#ffffe5">binary crate</text>
<text text-anchor="start" x="35.5" y="-1233" font-family="Arial" font-size="15.00" fill="#ffffe5">Workspace build&#45;tooling binary. See `cargo</text>
<text text-anchor="start" x="134.5" y="-1216" font-family="Arial" font-size="15.00" fill="#ffffe5">xtask &#45;&#45;help`.</text>
</g>
<!-- playwright_rs_macros -->
<g id="node6" class="node">
<title>playwright_rs_macros</title>
<polygon fill="#ce422b" stroke="#a11309" stroke-width="0" points="341.5,-1050 15.5,-1050 15.5,-870 341.5,-870 341.5,-1050"/>
<text text-anchor="start" x="85.5" y="-983" font-family="Arial" font-size="20.00" fill="#fffffa">playwright&#45;rs&#45;macros</text>
<text text-anchor="start" x="127.5" y="-962.6" font-family="Arial" font-size="13.00" fill="#ffffe5">proc&#45;macro crate</text>
<text text-anchor="start" x="35.5" y="-943" font-family="Arial" font-size="15.00" fill="#ffffe5">Compile&#45;time&#45;validated selector macros for</text>
<text text-anchor="start" x="129" y="-926" font-family="Arial" font-size="15.00" fill="#ffffe5">[playwright&#45;rs].</text>
</g>
<!-- playwright_rs_trace -->
<g id="node7" class="node">
<title>playwright_rs_trace</title>
<polygon fill="#ce422b" stroke="#a11309" stroke-width="0" points="338.5,-760 18.5,-760 18.5,-580 338.5,-580 338.5,-760"/>
<text text-anchor="start" x="96" y="-718" font-family="Arial" font-size="20.00" fill="#fffffa">playwright&#45;rs&#45;trace</text>
<text text-anchor="start" x="143" y="-697.6" font-family="Arial" font-size="13.00" fill="#ffffe5">library crate</text>
<text text-anchor="start" x="41.5" y="-678" font-family="Arial" font-size="15.00" fill="#ffffe5">Programmatic parser for [Playwright][pw]</text>
<text text-anchor="start" x="134.5" y="-661" font-family="Arial" font-size="15.00" fill="#ffffe5">trace zip files</text>
<text text-anchor="start" x="44.5" y="-644" font-family="Arial" font-size="15.00" fill="#ffffe5">(trace formats v8 and v9, v9 from 0.2.0;</text>
<text text-anchor="start" x="105" y="-627" font-family="Arial" font-size="15.00" fill="#ffffe5">verified against traces</text>
<text text-anchor="start" x="74.5" y="-610" font-family="Arial" font-size="15.00" fill="#ffffe5">recorded by the bundled driver,</text>
</g>
<!-- node_driver -->
<g id="node8" class="node">
<title>node_driver</title>
<polygon fill="#e9d4c8" stroke="#c0aca1" stroke-width="0" points="1406,-1630 1068,-1630 1068,-1450 1406,-1450 1406,-1630"/>
<text text-anchor="start" x="1163" y="-1571" font-family="Arial" font-size="20.00" fill="#48382f">Playwright driver</text>
<text text-anchor="start" x="1188.5" y="-1550.6" font-family="Arial" font-size="13.00" fill="#59493f">Node.js process</text>
<text text-anchor="start" x="1091" y="-1531" font-family="Arial" font-size="15.00" fill="#59493f">The official Playwright server, assembled by</text>
<text text-anchor="start" x="1088" y="-1514" font-family="Arial" font-size="15.00" fill="#59493f">build.rs from the pinned playwright&#45;core npm</text>
<text text-anchor="start" x="1206.5" y="-1497" font-family="Arial" font-size="15.00" fill="#59493f">package.</text>
</g>
<!-- browsers -->
<g id="node9" class="node">
<title>browsers</title>
<polygon fill="#e9d4c8" stroke="#c0aca1" stroke-width="0" points="357,-1920 0,-1920 0,-1740 357,-1740 357,-1920"/>
<text text-anchor="start" x="137" y="-1853" font-family="Arial" font-size="20.00" fill="#48382f">Browsers</text>
<text text-anchor="start" x="99" y="-1832.6" font-family="Arial" font-size="13.00" fill="#59493f">Chromium, Firefox, WebKit</text>
<text text-anchor="start" x="20.5" y="-1813" font-family="Arial" font-size="15.00" fill="#59493f">The browser processes the driver launches and</text>
<text text-anchor="start" x="31" y="-1796" font-family="Arial" font-size="15.00" fill="#59493f">controls; never spoken to directly from Rust.</text>
</g>
<!-- playwright_rs_site_e2e&#45;&gt;playwright_rs -->
<g id="edge1" class="edge">
<title>playwright_rs_site_e2e&#45;&gt;playwright_rs</title>
<path fill="none" stroke="#8d8d8d" stroke-width="2" stroke-dasharray="5,2" d="M299.78,-1449.87C397.36,-1376.74 534.53,-1273.96 633.7,-1199.65"/>
<polygon fill="#8d8d8d" stroke="#8d8d8d" stroke-width="2" points="635.45,-1201.62 639.87,-1195.02 632.3,-1197.41 635.45,-1201.62"/>
<polygon fill="#18191b" fill-opacity="0.627451" stroke="transparent" points="465.5,-1361 465.5,-1382 492.5,-1382 492.5,-1361 465.5,-1361"/>
<text text-anchor="start" x="469" y="-1368.3" font-family="Arial" font-weight="bold" font-size="14.00" fill="#c9c9c9">[...]</text>
</g>
<!-- playwright_rs&#45;&gt;playwright_rs_macros -->
<g id="edge4" class="edge">
<title>playwright_rs&#45;&gt;playwright_rs_macros</title>
<path fill="none" stroke="#8d8d8d" stroke-width="2" stroke-dasharray="5,2" d="M600.87,-1065.25C522.79,-1045.75 428.69,-1022.24 349.23,-1002.4"/>
<polygon fill="#8d8d8d" stroke="#8d8d8d" stroke-width="2" points="349.5,-999.76 341.59,-1000.49 348.23,-1004.85 349.5,-999.76"/>
<polygon fill="#18191b" fill-opacity="0.627451" stroke="transparent" points="455.5,-1049 455.5,-1070 502.5,-1070 502.5,-1049 455.5,-1049"/>
<text text-anchor="start" x="459" y="-1055.3" font-family="Arial" font-size="14.00" fill="#c9c9c9">locator</text>
</g>
<!-- playwright_rs&#45;&gt;playwright_rs_trace -->
<g id="edge5" class="edge">
<title>playwright_rs&#45;&gt;playwright_rs_trace</title>
<path fill="none" stroke="#8d8d8d" stroke-width="2" stroke-dasharray="5,2" d="M639.87,-1014.98C542.33,-941.89 405.17,-839.11 305.96,-764.76"/>
<polygon fill="#8d8d8d" stroke="#8d8d8d" stroke-width="2" points="307.36,-762.53 299.78,-760.13 304.21,-766.73 307.36,-762.53"/>
<polygon fill="#18191b" fill-opacity="0.627451" stroke="transparent" points="417,-939 417,-960 541,-960 541,-939 417,-939"/>
<text text-anchor="start" x="420" y="-945.3" font-family="Arial" font-size="14.00" fill="#c9c9c9">playwright_rs_trace</text>
</g>
<!-- playwright_rs&#45;&gt;node_driver -->
<g id="edge6" class="edge">
<title>playwright_rs&#45;&gt;node_driver</title>
<path fill="none" stroke="#8d8d8d" stroke-width="2" stroke-dasharray="5,2" d="M860.21,-1195.13C939.66,-1268.04 1051.22,-1370.43 1132.14,-1444.69"/>
<polygon fill="#8d8d8d" stroke="#8d8d8d" stroke-width="2" points="1130.61,-1446.85 1137.91,-1449.98 1134.16,-1442.98 1130.61,-1446.85"/>
<polygon fill="#18191b" fill-opacity="0.627451" stroke="transparent" points="981,-1322 981,-1343 1008,-1343 1008,-1322 981,-1322"/>
<text text-anchor="start" x="984.5" y="-1329.3" font-family="Arial" font-weight="bold" font-size="14.00" fill="#c9c9c9">[...]</text>
</g>
<!-- playwright_rs_fuzz&#45;&gt;playwright_rs -->
<g id="edge2" class="edge">
<title>playwright_rs_fuzz&#45;&gt;playwright_rs</title>
<path fill="none" stroke="#8d8d8d" stroke-width="2" stroke-dasharray="5,2" d="M299.62,-470.4C319.66,-487.61 339.57,-506.16 357,-525 500.02,-679.59 632.53,-887.82 704.26,-1008.13"/>
<polygon fill="#8d8d8d" stroke="#8d8d8d" stroke-width="2" points="702.17,-1009.75 708.26,-1014.85 706.68,-1007.07 702.17,-1009.75"/>
<polygon fill="#18191b" fill-opacity="0.627451" stroke="transparent" points="465.5,-751 465.5,-772 492.5,-772 492.5,-751 465.5,-751"/>
<text text-anchor="start" x="469" y="-758.3" font-family="Arial" font-weight="bold" font-size="14.00" fill="#c9c9c9">[...]</text>
</g>
<!-- xtask&#45;&gt;playwright_rs -->
<g id="edge3" class="edge">
<title>xtask&#45;&gt;playwright_rs</title>
<path fill="none" stroke="#8d8d8d" stroke-width="2" stroke-dasharray="5,2" d="M341.59,-1209.51C420.07,-1189.91 514.19,-1166.4 593.27,-1146.65"/>
<polygon fill="#8d8d8d" stroke="#8d8d8d" stroke-width="2" points="594.23,-1149.11 600.87,-1144.75 592.96,-1144.02 594.23,-1149.11"/>
<polygon fill="#18191b" fill-opacity="0.627451" stroke="transparent" points="436,-1190 436,-1211 522,-1211 522,-1190 436,-1190"/>
<text text-anchor="start" x="439" y="-1196.3" font-family="Arial" font-size="14.00" fill="#c9c9c9">playwright_rs</text>
</g>
<!-- node_driver&#45;&gt;browsers -->
<g id="edge7" class="edge">
<title>node_driver&#45;&gt;browsers</title>
<path fill="none" stroke="#8d8d8d" stroke-width="2" stroke-dasharray="5,2" d="M1067.63,-1586.22C875.75,-1638.89 563.1,-1724.71 364.54,-1779.21"/>
<polygon fill="#8d8d8d" stroke="#8d8d8d" stroke-width="2" points="363.77,-1776.7 357.23,-1781.22 365.16,-1781.76 363.77,-1776.7"/>
<polygon fill="#18191b" fill-opacity="0.627451" stroke="transparent" points="671.5,-1713 671.5,-1753 850.5,-1753 850.5,-1713 671.5,-1713"/>
<text text-anchor="start" x="675" y="-1738.8" font-family="Arial" font-size="14.00" fill="#c9c9c9">drives</text>
<text text-anchor="start" x="675" y="-1719.4" font-family="Arial" font-size="12.00" fill="#c9c9c9">[ CDP, Juggler, WebKit protocol ]</text>
</g>
</g>
</svg>
