<?xml version="1.0" encoding="UTF-8" standalone="no"?>
<!DOCTYPE svg PUBLIC "-//W3C//DTD SVG 1.1//EN"
 "http://www.w3.org/Graphics/SVG/1.1/DTD/svg11.dtd">
<!-- Generated by graphviz version 2.43.0 (0)
 -->
<!-- Title: %3 Pages: 1 -->
<svg width="1762pt" height="587pt"
 viewBox="0.00 0.00 1762.05 587.10" xmlns="http://www.w3.org/2000/svg" xmlns:xlink="http://www.w3.org/1999/xlink">
<g id="graph0" class="graph" transform="scale(1 1) rotate(0) translate(15.05 572.05)">
<title>%3</title>
<g id="clust1" class="cluster">
<title>cluster_api</title>
<polygon fill="#999999" stroke="#808080" points="453.95,-8 453.95,-288 1283.95,-288 1283.95,-8 453.95,-8"/>
<text text-anchor="start" x="461.95" y="-276.2" font-family="Arial" font-weight="bold" font-size="11.00" fill="#6d6d6d" fill-opacity="0.701961">API</text>
</g>
<!-- connect_options -->
<g id="node1" class="node">
<title>connect_options</title>
<polygon fill="#ffffff" stroke="#d6d6d6" stroke-width="0" points="1243.95,-228 923.95,-228 923.95,-48 1243.95,-48 1243.95,-228"/>
<text text-anchor="start" x="1010.95" y="-133" font-family="Arial" font-size="20.00" fill="#5b5b5b">connect_options</text>
</g>
<!-- launch_options -->
<g id="node2" class="node">
<title>launch_options</title>
<polygon fill="#ffffff" stroke="#d6d6d6" stroke-width="0" points="813.95,-228 493.95,-228 493.95,-48 813.95,-48 813.95,-228"/>
<text text-anchor="start" x="585.95" y="-133" font-family="Arial" font-size="20.00" fill="#5b5b5b">launch_options</text>
</g>
<!-- examples -->
<g id="node3" class="node">
<title>examples</title>
<polygon fill="#ffffff" stroke="#d6d6d6" stroke-width="0" points="1728.95,-557 1408.95,-557 1408.95,-377 1728.95,-377 1728.95,-557"/>
<text text-anchor="start" x="1525.95" y="-462" font-family="Arial" font-size="20.00" fill="#5b5b5b">examples</text>
</g>
<!-- protocol -->
<g id="node4" class="node">
<title>protocol</title>
<polygon fill="#ffffff" stroke="#d6d6d6" stroke-width="0" points="330.95,-557 10.95,-557 10.95,-377 330.95,-377 330.95,-557"/>
<text text-anchor="start" x="134.95" y="-462" font-family="Arial" font-size="20.00" fill="#5b5b5b">protocol</text>
</g>
<!-- tests -->
<g id="node5" class="node">
<title>tests</title>
<polygon fill="#ffffff" stroke="#d6d6d6" stroke-width="0" points="1078.95,-557 758.95,-557 758.95,-377 1078.95,-377 1078.95,-557"/>
<text text-anchor="start" x="897.95" y="-462" font-family="Arial" font-size="20.00" fill="#5b5b5b">tests</text>
</g>
<!-- launch_options&#45;&gt;protocol -->
<g id="edge7" class="edge">
<title>launch_options&#45;&gt;protocol</title>
<path fill="none" stroke="#8d8d8d" stroke-width="2" stroke-dasharray="5,2" d="M493.74,-167.53C362,-194.63 190.49,-239.58 148.95,-296 133.53,-316.94 131.2,-343.39 134.82,-369.15"/>
<polygon fill="#8d8d8d" stroke="#8d8d8d" stroke-width="2" points="132.26,-369.77 136.06,-376.75 137.44,-368.92 132.26,-369.77"/>
<polygon fill="#18191b" fill-opacity="0.627451" stroke="transparent" points="148.95,-296 148.95,-317 238.95,-317 238.95,-296 148.95,-296"/>
<text text-anchor="start" x="151.95" y="-302.3" font-family="Arial" font-size="14.00" fill="#c9c9c9">ProxySettings</text>
</g>
<!-- examples&#45;&gt;connect_options -->
<g id="edge1" class="edge">
<title>examples&#45;&gt;connect_options</title>
<path fill="none" stroke="#8d8d8d" stroke-width="2" stroke-dasharray="5,2" d="M1584.2,-376.74C1584.36,-348.49 1579.14,-318.74 1561.95,-296 1489.93,-200.74 1358.51,-162.45 1251.66,-147.45"/>
<polygon fill="#8d8d8d" stroke="#8d8d8d" stroke-width="2" points="1251.8,-144.82 1244.01,-146.41 1251.09,-150.02 1251.8,-144.82"/>
<polygon fill="#18191b" fill-opacity="0.627451" stroke="transparent" points="1572.95,-296 1572.95,-317 1731.95,-317 1731.95,-296 1572.95,-296"/>
<text text-anchor="start" x="1576.45" y="-302.3" font-family="Arial" font-size="14.00" fill="#c9c9c9">ConnectOverCdpOptions</text>
</g>
<!-- examples&#45;&gt;launch_options -->
<g id="edge2" class="edge">
<title>examples&#45;&gt;launch_options</title>
<path fill="none" stroke="#8d8d8d" stroke-width="2" stroke-dasharray="5,2" d="M1454.55,-376.83C1406.98,-344.98 1349.49,-312.84 1291.95,-296 1246.83,-282.8 913.68,-302.45 868.95,-288 831.58,-275.93 794.92,-255.01 762.75,-232.59"/>
<polygon fill="#8d8d8d" stroke="#8d8d8d" stroke-width="2" points="764.02,-230.27 756.38,-228.09 760.99,-234.56 764.02,-230.27"/>
<polygon fill="#18191b" fill-opacity="0.627451" stroke="transparent" points="1340.95,-296 1340.95,-317 1438.95,-317 1438.95,-296 1340.95,-296"/>
<text text-anchor="start" x="1343.95" y="-302.3" font-family="Arial" font-size="14.00" fill="#c9c9c9">LaunchOptions</text>
</g>
<!-- protocol&#45;&gt;connect_options -->
<g id="edge3" class="edge">
<title>protocol&#45;&gt;connect_options</title>
<path fill="none" stroke="#8d8d8d" stroke-width="2" stroke-dasharray="5,2" d="M286.26,-376.83C334.19,-344.98 392.08,-312.84 449.95,-296 494.66,-282.99 824.64,-302.32 868.95,-288 906.32,-275.92 942.98,-255 975.14,-232.59"/>
<polygon fill="#8d8d8d" stroke="#8d8d8d" stroke-width="2" points="976.9,-234.56 981.52,-228.09 973.87,-230.27 976.9,-234.56"/>
<polygon fill="#18191b" fill-opacity="0.627451" stroke="transparent" points="449.95,-296 449.95,-317 713.95,-317 713.95,-296 449.95,-296"/>
<text text-anchor="start" x="452.95" y="-302.3" font-family="Arial" font-size="14.00" fill="#c9c9c9">ConnectOptions, ConnectOverCdpOptions</text>
</g>
<!-- protocol&#45;&gt;launch_options -->
<g id="edge4" class="edge">
<title>protocol&#45;&gt;launch_options</title>
<path fill="none" stroke="#8d8d8d" stroke-width="2" stroke-dasharray="5,2" d="M25.34,-376.83C1.39,-351.49 -9.51,-323.34 11.95,-296 69.93,-222.13 316.25,-178.53 486.35,-156.7"/>
<polygon fill="#8d8d8d" stroke="#8d8d8d" stroke-width="2" points="486.77,-159.29 493.88,-155.74 486.11,-154.09 486.77,-159.29"/>
<polygon fill="#18191b" fill-opacity="0.627451" stroke="transparent" points="11.95,-296 11.95,-317 38.95,-317 38.95,-296 11.95,-296"/>
<text text-anchor="start" x="15.45" y="-303.3" font-family="Arial" font-weight="bold" font-size="14.00" fill="#c9c9c9">[...]</text>
</g>
<!-- tests&#45;&gt;connect_options -->
<g id="edge5" class="edge">
<title>tests&#45;&gt;connect_options</title>
<path fill="none" stroke="#8d8d8d" stroke-width="2" stroke-dasharray="5,2" d="M964.04,-376.65C986.18,-332.76 1012.89,-279.83 1035.47,-235.07"/>
<polygon fill="#8d8d8d" stroke="#8d8d8d" stroke-width="2" points="1037.88,-236.12 1038.92,-228.25 1033.19,-233.76 1037.88,-236.12"/>
<polygon fill="#18191b" fill-opacity="0.627451" stroke="transparent" points="1000.95,-296 1000.95,-317 1264.95,-317 1264.95,-296 1000.95,-296"/>
<text text-anchor="start" x="1003.95" y="-302.3" font-family="Arial" font-size="14.00" fill="#c9c9c9">ConnectOptions, ConnectOverCdpOptions</text>
</g>
<!-- tests&#45;&gt;launch_options -->
<g id="edge6" class="edge">
<title>tests&#45;&gt;launch_options</title>
<path fill="none" stroke="#8d8d8d" stroke-width="2" stroke-dasharray="5,2" d="M810.81,-376.82C791.09,-358.11 771.53,-337.73 754.95,-317 734.92,-291.96 716.45,-262.44 700.94,-234.73"/>
<polygon fill="#8d8d8d" stroke="#8d8d8d" stroke-width="2" points="703.2,-233.39 697.27,-228.1 698.61,-235.93 703.2,-233.39"/>
<polygon fill="#18191b" fill-opacity="0.627451" stroke="transparent" points="754.95,-296 754.95,-317 968.95,-317 968.95,-296 754.95,-296"/>
<text text-anchor="start" x="757.95" y="-302.3" font-family="Arial" font-size="14.00" fill="#c9c9c9">IgnoreDefaultArgs, LaunchOptions</text>
</g>
</g>
</svg>
