<?xml version="1.0" encoding="UTF-8" standalone="no"?>
<!DOCTYPE svg PUBLIC "-//W3C//DTD SVG 1.1//EN"
 "http://www.w3.org/Graphics/SVG/1.1/DTD/svg11.dtd">
<!-- Generated by graphviz version 2.43.0 (0)
 -->
<!-- Title: %3 Pages: 1 -->
<svg width="6607pt" height="880pt"
 viewBox="0.00 0.00 6607.10 880.10" xmlns="http://www.w3.org/2000/svg" xmlns:xlink="http://www.w3.org/1999/xlink">
<g id="graph0" class="graph" transform="scale(1 1) rotate(0) translate(15.05 865.05)">
<title>%3</title>
<g id="clust1" class="cluster">
<title>cluster_components</title>
<polygon fill="#194b9e" stroke="#1b3d88" points="8,-281 8,-581 6569,-581 6569,-281 8,-281"/>
<text text-anchor="start" x="16" y="-569.2" font-family="Arial" font-weight="bold" font-size="11.00" fill="#bfdbfe" fill-opacity="0.701961">COMPONENTS</text>
</g>
<!-- comparison -->
<g id="node1" class="node">
<title>comparison</title>
<polygon fill="#3b82f6" stroke="#2563eb" stroke-width="0" points="798,-501 478,-501 478,-321 798,-321 798,-501"/>
<text text-anchor="start" x="586" y="-406" font-family="Arial" font-size="20.00" fill="#eff6ff">comparison</text>
</g>
<!-- dogfood_banner -->
<g id="node2" class="node">
<title>dogfood_banner</title>
<polygon fill="#3b82f6" stroke="#2563eb" stroke-width="0" points="1228,-501 908,-501 908,-321 1228,-321 1228,-501"/>
<text text-anchor="start" x="994" y="-406" font-family="Arial" font-size="20.00" fill="#eff6ff">dogfood_banner</text>
</g>
<!-- features -->
<g id="node3" class="node">
<title>features</title>
<polygon fill="#3b82f6" stroke="#2563eb" stroke-width="0" points="1658,-501 1338,-501 1338,-321 1658,-321 1658,-501"/>
<text text-anchor="start" x="1461.5" y="-406" font-family="Arial" font-size="20.00" fill="#eff6ff">features</text>
</g>
<!-- footer -->
<g id="node4" class="node">
<title>footer</title>
<polygon fill="#3b82f6" stroke="#2563eb" stroke-width="0" points="2628,-501 2308,-501 2308,-321 2628,-321 2628,-501"/>
<text text-anchor="start" x="2442" y="-406" font-family="Arial" font-size="20.00" fill="#eff6ff">footer</text>
</g>
<!-- hero -->
<g id="node5" class="node">
<title>hero</title>
<polygon fill="#3b82f6" stroke="#2563eb" stroke-width="0" points="3058,-501 2738,-501 2738,-321 3058,-321 3058,-501"/>
<text text-anchor="start" x="2877.5" y="-406" font-family="Arial" font-size="20.00" fill="#eff6ff">hero</text>
</g>
<!-- install -->
<g id="node6" class="node">
<title>install</title>
<polygon fill="#3b82f6" stroke="#2563eb" stroke-width="0" points="4699,-501 4379,-501 4379,-321 4699,-321 4699,-501"/>
<text text-anchor="start" x="4513" y="-406" font-family="Arial" font-size="20.00" fill="#eff6ff">install</text>
</g>
<!-- version_switcher -->
<g id="node7" class="node">
<title>version_switcher</title>
<polygon fill="#3b82f6" stroke="#2563eb" stroke-width="0" points="6529,-501 6209,-501 6209,-321 6529,-321 6529,-501"/>
<text text-anchor="start" x="6294.5" y="-406" font-family="Arial" font-size="20.00" fill="#eff6ff">version_switcher</text>
</g>
<!-- walkthrough -->
<g id="node8" class="node">
<title>walkthrough</title>
<polygon fill="#3b82f6" stroke="#2563eb" stroke-width="0" points="5669,-501 5349,-501 5349,-321 5669,-321 5669,-501"/>
<text text-anchor="start" x="5454.5" y="-406" font-family="Arial" font-size="20.00" fill="#eff6ff">walkthrough</text>
</g>
<!-- code_tabs -->
<g id="node9" class="node">
<title>code_tabs</title>
<polygon fill="#3b82f6" stroke="#2563eb" stroke-width="0" points="2198,-501 1878,-501 1878,-321 2198,-321 2198,-501"/>
<text text-anchor="start" x="1991.5" y="-406" font-family="Arial" font-size="20.00" fill="#eff6ff">code_tabs</text>
</g>
<!-- feature_card -->
<g id="node10" class="node">
<title>feature_card</title>
<polygon fill="#3b82f6" stroke="#2563eb" stroke-width="0" points="6099,-501 5779,-501 5779,-321 6099,-321 6099,-501"/>
<text text-anchor="start" x="5882.5" y="-406" font-family="Arial" font-size="20.00" fill="#eff6ff">feature_card</text>
</g>
<!-- icons_ -->
<g id="node11" class="node">
<title>icons_</title>
<polygon fill="#3b82f6" stroke="#2563eb" stroke-width="0" points="4269,-501 3949,-501 3949,-321 4269,-321 4269,-501"/>
<text text-anchor="start" x="4085.5" y="-406" font-family="Arial" font-size="20.00" fill="#eff6ff">icons</text>
</g>
<!-- links -->
<g id="node12" class="node">
<title>links</title>
<polygon fill="#3b82f6" stroke="#2563eb" stroke-width="0" points="3839,-501 3497,-501 3497,-321 3839,-321 3839,-501"/>
<text text-anchor="start" x="3648" y="-433" font-family="Arial" font-size="20.00" fill="#eff6ff">links</text>
<text text-anchor="start" x="3517" y="-411" font-family="Arial" font-size="15.00" fill="#bfdbfe">The destinations the hero and the footer both</text>
<text text-anchor="start" x="3591" y="-394" font-family="Arial" font-size="15.00" fill="#bfdbfe">link to, so the two rows</text>
<text text-anchor="start" x="3612" y="-377" font-family="Arial" font-size="15.00" fill="#bfdbfe">cannot disagree.</text>
</g>
<!-- code_block -->
<g id="node13" class="node">
<title>code_block</title>
<polygon fill="#3b82f6" stroke="#2563eb" stroke-width="0" points="5239,-501 4919,-501 4919,-321 5239,-321 5239,-501"/>
<text text-anchor="start" x="5028" y="-406" font-family="Arial" font-size="20.00" fill="#eff6ff">code_block</text>
</g>
<!-- unreleased_badge -->
<g id="node14" class="node">
<title>unreleased_badge</title>
<polygon fill="#3b82f6" stroke="#2563eb" stroke-width="0" points="368,-501 48,-501 48,-321 368,-321 368,-501"/>
<text text-anchor="start" x="124" y="-406" font-family="Arial" font-size="20.00" fill="#eff6ff">unreleased_badge</text>
</g>
<!-- app -->
<g id="node15" class="node">
<title>app</title>
<polygon fill="#3b82f6" stroke="#2563eb" stroke-width="0" points="3173,-850 2853,-850 2853,-670 3173,-670 3173,-850"/>
<text text-anchor="start" x="2996" y="-755" font-family="Arial" font-size="20.00" fill="#eff6ff">app</text>
</g>
<!-- snippets -->
<g id="node16" class="node">
<title>snippets</title>
<polygon fill="#3b82f6" stroke="#2563eb" stroke-width="0" points="1927,-180 1591,-180 1591,0 1927,0 1927,-180"/>
<text text-anchor="start" x="1721.5" y="-129" font-family="Arial" font-size="20.00" fill="#eff6ff">snippets</text>
<text text-anchor="start" x="1611" y="-107" font-family="Arial" font-size="15.00" fill="#bfdbfe">Syntax&#45;highlighted code snippets, generated</text>
<text text-anchor="start" x="1659" y="-90" font-family="Arial" font-size="15.00" fill="#bfdbfe">at build time by `build.rs` from</text>
<text text-anchor="start" x="1615.5" y="-73" font-family="Arial" font-size="15.00" fill="#bfdbfe">the files in `snippets/`. Each constant holds</text>
<text text-anchor="start" x="1682" y="-56" font-family="Arial" font-size="15.00" fill="#bfdbfe">highlighted inner HTML</text>
<text text-anchor="start" x="1612.5" y="-39" font-family="Arial" font-size="15.00" fill="#bfdbfe">(token spans with inline colors) rendered via</text>
</g>
<!-- version -->
<g id="node17" class="node">
<title>version</title>
<polygon fill="#3b82f6" stroke="#2563eb" stroke-width="0" points="5132,-180 4812,-180 4812,0 5132,0 5132,-180"/>
<text text-anchor="start" x="4939.5" y="-129" font-family="Arial" font-size="20.00" fill="#eff6ff">version</text>
<text text-anchor="start" x="4851.5" y="-107" font-family="Arial" font-size="15.00" fill="#bfdbfe">The build&#39;s version identity, from the</text>
<text text-anchor="start" x="4851.5" y="-90" font-family="Arial" font-size="15.00" fill="#bfdbfe">`SITE_VERSION` env that `build.rs`</text>
<text text-anchor="start" x="4848" y="-73" font-family="Arial" font-size="15.00" fill="#bfdbfe">injects. Single source for the `dev` vs</text>
<text text-anchor="start" x="4866.5" y="-56" font-family="Arial" font-size="15.00" fill="#bfdbfe">release&#45;snapshot distinction the</text>
<text text-anchor="start" x="4893" y="-39" font-family="Arial" font-size="15.00" fill="#bfdbfe">components branch on.</text>
</g>
<!-- comparison&#45;&gt;code_tabs -->
<g id="edge9" class="edge">
<title>comparison&#45;&gt;code_tabs</title>
<path fill="none" stroke="#8d8d8d" stroke-width="2" stroke-dasharray="5,2" d="M730.92,-501.08C766.27,-529.48 808.76,-557.27 853,-572 943.66,-602.18 1619.96,-593.78 1713,-572 1772.09,-558.17 1832.75,-531.93 1885.43,-504.59"/>
<polygon fill="#8d8d8d" stroke="#8d8d8d" stroke-width="2" points="1886.71,-506.88 1892.14,-501.08 1884.28,-502.23 1886.71,-506.88"/>
<polygon fill="#18191b" fill-opacity="0.627451" stroke="transparent" points="1279.5,-589 1279.5,-610 1346.5,-610 1346.5,-589 1279.5,-589"/>
<text text-anchor="start" x="1283" y="-595.3" font-family="Arial" font-size="14.00" fill="#c9c9c9">CodeTabs</text>
</g>
<!-- comparison&#45;&gt;code_block -->
<g id="edge10" class="edge">
<title>comparison&#45;&gt;code_block</title>
<path fill="none" stroke="#8d8d8d" stroke-width="2" stroke-dasharray="5,2" d="M730.92,-501.08C766.27,-529.48 808.76,-557.27 853,-572 955.81,-606.23 4648.49,-596.7 4754,-572 4813.09,-558.17 4873.75,-531.93 4926.43,-504.59"/>
<polygon fill="#8d8d8d" stroke="#8d8d8d" stroke-width="2" points="4927.71,-506.88 4933.14,-501.08 4925.28,-502.23 4927.71,-506.88"/>
<polygon fill="#18191b" fill-opacity="0.627451" stroke="transparent" points="1981,-589 1981,-610 2053,-610 2053,-589 1981,-589"/>
<text text-anchor="start" x="1984" y="-595.3" font-family="Arial" font-size="14.00" fill="#c9c9c9">CodeBlock</text>
</g>
<!-- comparison&#45;&gt;snippets -->
<g id="edge11" class="edge">
<title>comparison&#45;&gt;snippets</title>
<path fill="none" stroke="#8d8d8d" stroke-width="2" stroke-dasharray="5,2" d="M770.96,-320.95C797.35,-305.97 825.44,-291.8 853,-281 1096.7,-185.48 1397.02,-134.59 1583.28,-110.22"/>
<polygon fill="#8d8d8d" stroke="#8d8d8d" stroke-width="2" points="1583.86,-112.79 1590.96,-109.22 1583.18,-107.58 1583.86,-112.79"/>
<polygon fill="#18191b" fill-opacity="0.627451" stroke="transparent" points="948,-240 948,-261 1005,-261 1005,-240 948,-240"/>
<text text-anchor="start" x="951.5" y="-246.3" font-family="Arial" font-size="14.00" fill="#c9c9c9">snippets</text>
</g>
<!-- features&#45;&gt;code_tabs -->
<g id="edge12" class="edge">
<title>features&#45;&gt;code_tabs</title>
<path fill="none" stroke="#8d8d8d" stroke-width="2" stroke-dasharray="5,2" d="M1658.19,-411C1724.96,-411 1802.53,-411 1870.09,-411"/>
<polygon fill="#8d8d8d" stroke="#8d8d8d" stroke-width="2" points="1870.36,-413.63 1877.86,-411 1870.36,-408.38 1870.36,-413.63"/>
<polygon fill="#18191b" fill-opacity="0.627451" stroke="transparent" points="1734.5,-414 1734.5,-435 1801.5,-435 1801.5,-414 1734.5,-414"/>
<text text-anchor="start" x="1738" y="-420.3" font-family="Arial" font-size="14.00" fill="#c9c9c9">CodeTabs</text>
</g>
<!-- features&#45;&gt;feature_card -->
<g id="edge13" class="edge">
<title>features&#45;&gt;feature_card</title>
<path fill="none" stroke="#8d8d8d" stroke-width="2" stroke-dasharray="5,2" d="M1643.86,-501.08C1698.06,-529.66 1761.38,-557.57 1823,-572 1928.51,-596.7 5621.19,-606.23 5724,-572 5765.65,-558.13 5805.74,-532.69 5839.79,-506.07"/>
<polygon fill="#8d8d8d" stroke="#8d8d8d" stroke-width="2" points="5841.83,-507.8 5846.08,-501.08 5838.57,-503.69 5841.83,-507.8"/>
<polygon fill="#18191b" fill-opacity="0.627451" stroke="transparent" points="3244,-589 3244,-610 3326,-610 3326,-589 3244,-589"/>
<text text-anchor="start" x="3247" y="-595.3" font-family="Arial" font-size="14.00" fill="#c9c9c9">FeatureCard</text>
</g>
<!-- features&#45;&gt;code_block -->
<g id="edge14" class="edge">
<title>features&#45;&gt;code_block</title>
<path fill="none" stroke="#8d8d8d" stroke-width="2" stroke-dasharray="5,2" d="M1643.86,-501.08C1698.06,-529.66 1761.38,-557.57 1823,-572 1981.55,-609.12 4595.45,-609.12 4754,-572 4813.09,-558.17 4873.75,-531.93 4926.43,-504.59"/>
<polygon fill="#8d8d8d" stroke="#8d8d8d" stroke-width="2" points="4927.71,-506.88 4933.14,-501.08 4925.28,-502.23 4927.71,-506.88"/>
<polygon fill="#18191b" fill-opacity="0.627451" stroke="transparent" points="2648,-589 2648,-610 2720,-610 2720,-589 2648,-589"/>
<text text-anchor="start" x="2651" y="-595.3" font-family="Arial" font-size="14.00" fill="#c9c9c9">CodeBlock</text>
</g>
<!-- features&#45;&gt;snippets -->
<g id="edge15" class="edge">
<title>features&#45;&gt;snippets</title>
<path fill="none" stroke="#8d8d8d" stroke-width="2" stroke-dasharray="5,2" d="M1571.05,-320.72C1605.33,-278.82 1646.22,-228.85 1681.09,-186.23"/>
<polygon fill="#8d8d8d" stroke="#8d8d8d" stroke-width="2" points="1683.25,-187.73 1685.97,-180.26 1679.19,-184.4 1683.25,-187.73"/>
<polygon fill="#18191b" fill-opacity="0.627451" stroke="transparent" points="1637,-240 1637,-261 1694,-261 1694,-240 1637,-240"/>
<text text-anchor="start" x="1640.5" y="-246.3" font-family="Arial" font-size="14.00" fill="#c9c9c9">snippets</text>
</g>
<!-- features&#45;&gt;version -->
<g id="edge16" class="edge">
<title>features&#45;&gt;version</title>
<path fill="none" stroke="#8d8d8d" stroke-width="2" stroke-dasharray="5,2" d="M1658.14,-333.07C1709.59,-312.02 1767.62,-291.99 1823,-281 1979.3,-249.98 3097.9,-269.98 3257,-261 3825.98,-228.89 4497.66,-150.46 4804.25,-112.4"/>
<polygon fill="#8d8d8d" stroke="#8d8d8d" stroke-width="2" points="4804.75,-114.99 4811.87,-111.46 4804.1,-109.78 4804.75,-114.99"/>
<polygon fill="#18191b" fill-opacity="0.627451" stroke="transparent" points="3539,-240 3539,-261 3691,-261 3691,-240 3539,-240"/>
<text text-anchor="start" x="3542" y="-246.3" font-family="Arial" font-size="14.00" fill="#c9c9c9">SITE_VERSION, is_dev</text>
</g>
<!-- footer&#45;&gt;links -->
<g id="edge17" class="edge">
<title>footer&#45;&gt;links</title>
<path fill="none" stroke="#8d8d8d" stroke-width="2" stroke-dasharray="5,2" d="M2560.92,-501.08C2596.27,-529.48 2638.76,-557.27 2683,-572 2955.96,-662.87 3289.18,-568.15 3489.68,-490.35"/>
<polygon fill="#8d8d8d" stroke="#8d8d8d" stroke-width="2" points="3490.72,-492.76 3496.76,-487.59 3488.81,-487.87 3490.72,-492.76"/>
<polygon fill="#18191b" fill-opacity="0.627451" stroke="transparent" points="2785.5,-589 2785.5,-610 3114.5,-610 3114.5,-589 2785.5,-589"/>
<text text-anchor="start" x="2789" y="-595.3" font-family="Arial" font-size="14.00" fill="#c9c9c9">ARCHITECTURE, CRATES_IO, DOCS_RS, GITHUB</text>
</g>
<!-- hero&#45;&gt;icons_ -->
<g id="edge18" class="edge">
<title>hero&#45;&gt;icons_</title>
<path fill="none" stroke="#8d8d8d" stroke-width="2" stroke-dasharray="5,2" d="M3058.31,-482.89C3258.33,-562.23 3608.77,-666.96 3894,-572 3935.65,-558.13 3975.74,-532.69 4009.79,-506.07"/>
<polygon fill="#8d8d8d" stroke="#8d8d8d" stroke-width="2" points="4011.83,-507.8 4016.08,-501.08 4008.57,-503.69 4011.83,-507.8"/>
<polygon fill="#18191b" fill-opacity="0.627451" stroke="transparent" points="3167.5,-589 3167.5,-610 3238.5,-610 3238.5,-589 3167.5,-589"/>
<text text-anchor="start" x="3171" y="-595.3" font-family="Arial" font-size="14.00" fill="#c9c9c9">Icon, icons</text>
</g>
<!-- hero&#45;&gt;links -->
<g id="edge19" class="edge">
<title>hero&#45;&gt;links</title>
<path fill="none" stroke="#8d8d8d" stroke-width="2" stroke-dasharray="5,2" d="M3058.01,-411C3183.73,-411 3358.76,-411 3489.1,-411"/>
<polygon fill="#8d8d8d" stroke="#8d8d8d" stroke-width="2" points="3489.33,-413.63 3496.83,-411 3489.33,-408.38 3489.33,-413.63"/>
<polygon fill="#18191b" fill-opacity="0.627451" stroke="transparent" points="3113,-414 3113,-435 3442,-435 3442,-414 3113,-414"/>
<text text-anchor="start" x="3116.5" y="-420.3" font-family="Arial" font-size="14.00" fill="#c9c9c9">ARCHITECTURE, CRATES_IO, DOCS_RS, GITHUB</text>
</g>
<!-- hero&#45;&gt;version -->
<g id="edge20" class="edge">
<title>hero&#45;&gt;version</title>
<path fill="none" stroke="#8d8d8d" stroke-width="2" stroke-dasharray="5,2" d="M3058.28,-363.07C3165.8,-333.81 3311.16,-298.49 3442,-281 3709.1,-245.29 3780.07,-289.91 4048,-261 4314.72,-232.23 4620.11,-170.25 4804.4,-129.62"/>
<polygon fill="#8d8d8d" stroke="#8d8d8d" stroke-width="2" points="4805.23,-132.12 4811.99,-127.94 4804.1,-127 4805.23,-132.12"/>
<polygon fill="#18191b" fill-opacity="0.627451" stroke="transparent" points="4200,-240 4200,-261 4246,-261 4246,-240 4200,-240"/>
<text text-anchor="start" x="4203" y="-246.3" font-family="Arial" font-size="14.00" fill="#c9c9c9">is_dev</text>
</g>
<!-- install&#45;&gt;code_block -->
<g id="edge21" class="edge">
<title>install&#45;&gt;code_block</title>
<path fill="none" stroke="#8d8d8d" stroke-width="2" stroke-dasharray="5,2" d="M4699.19,-411C4765.96,-411 4843.53,-411 4911.09,-411"/>
<polygon fill="#8d8d8d" stroke="#8d8d8d" stroke-width="2" points="4911.36,-413.63 4918.86,-411 4911.36,-408.38 4911.36,-413.63"/>
<polygon fill="#18191b" fill-opacity="0.627451" stroke="transparent" points="4773,-414 4773,-435 4845,-435 4845,-414 4773,-414"/>
<text text-anchor="start" x="4776" y="-420.3" font-family="Arial" font-size="14.00" fill="#c9c9c9">CodeBlock</text>
</g>
<!-- install&#45;&gt;snippets -->
<g id="edge22" class="edge">
<title>install&#45;&gt;snippets</title>
<path fill="none" stroke="#8d8d8d" stroke-width="2" stroke-dasharray="5,2" d="M4415.35,-320.98C4386.64,-304.63 4355.29,-289.92 4324,-281 4252.13,-260.52 3053.51,-266.72 2979,-261 2605.12,-232.28 2171.05,-163.15 1934.65,-122.44"/>
<polygon fill="#8d8d8d" stroke="#8d8d8d" stroke-width="2" points="1934.86,-119.81 1927.02,-121.12 1933.97,-124.98 1934.86,-119.81"/>
<polygon fill="#18191b" fill-opacity="0.627451" stroke="transparent" points="2979,-240 2979,-261 3036,-261 3036,-240 2979,-240"/>
<text text-anchor="start" x="2982.5" y="-246.3" font-family="Arial" font-size="14.00" fill="#c9c9c9">snippets</text>
</g>
<!-- install&#45;&gt;version -->
<g id="edge23" class="edge">
<title>install&#45;&gt;version</title>
<path fill="none" stroke="#8d8d8d" stroke-width="2" stroke-dasharray="5,2" d="M4659.9,-320.93C4717.48,-278.51 4786.35,-227.78 4844.72,-184.77"/>
<polygon fill="#8d8d8d" stroke="#8d8d8d" stroke-width="2" points="4846.58,-186.66 4851.06,-180.1 4843.46,-182.43 4846.58,-186.66"/>
<polygon fill="#18191b" fill-opacity="0.627451" stroke="transparent" points="4768,-240 4768,-261 4814,-261 4814,-240 4768,-240"/>
<text text-anchor="start" x="4771" y="-246.3" font-family="Arial" font-size="14.00" fill="#c9c9c9">is_dev</text>
</g>
<!-- version_switcher&#45;&gt;version -->
<g id="edge24" class="edge">
<title>version_switcher&#45;&gt;version</title>
<path fill="none" stroke="#8d8d8d" stroke-width="2" stroke-dasharray="5,2" d="M6238.19,-320.87C6211.26,-305.62 6182.42,-291.37 6154,-281 5807.53,-154.57 5373.47,-112.12 5139.71,-97.98"/>
<polygon fill="#8d8d8d" stroke="#8d8d8d" stroke-width="2" points="5139.81,-95.35 5132.16,-97.53 5139.49,-100.59 5139.81,-95.35"/>
<polygon fill="#18191b" fill-opacity="0.627451" stroke="transparent" points="6093,-240 6093,-261 6245,-261 6245,-240 6093,-240"/>
<text text-anchor="start" x="6096" y="-246.3" font-family="Arial" font-size="14.00" fill="#c9c9c9">SITE_VERSION, is_dev</text>
</g>
<!-- walkthrough&#45;&gt;snippets -->
<g id="edge25" class="edge">
<title>walkthrough&#45;&gt;snippets</title>
<path fill="none" stroke="#8d8d8d" stroke-width="2" stroke-dasharray="5,2" d="M5385.38,-320.86C5356.68,-304.51 5325.32,-289.83 5294,-281 5180.59,-249.01 3290.3,-272.27 3173,-261 3121.72,-256.07 3109.95,-247.6 3059,-240 2658.44,-180.22 2185.32,-131.44 1934.96,-107.33"/>
<polygon fill="#8d8d8d" stroke="#8d8d8d" stroke-width="2" points="1934.96,-104.7 1927.25,-106.59 1934.46,-109.92 1934.96,-104.7"/>
<polygon fill="#18191b" fill-opacity="0.627451" stroke="transparent" points="3173,-240 3173,-261 3230,-261 3230,-240 3173,-240"/>
<text text-anchor="start" x="3176.5" y="-246.3" font-family="Arial" font-size="14.00" fill="#c9c9c9">snippets</text>
</g>
<!-- walkthrough&#45;&gt;version -->
<g id="edge26" class="edge">
<title>walkthrough&#45;&gt;version</title>
<path fill="none" stroke="#8d8d8d" stroke-width="2" stroke-dasharray="5,2" d="M5360.75,-320.86C5338.4,-307.47 5315.6,-293.85 5294,-281 5240.77,-249.33 5182.49,-214.87 5130.32,-184.1"/>
<polygon fill="#8d8d8d" stroke="#8d8d8d" stroke-width="2" points="5131.45,-181.73 5123.66,-180.18 5128.78,-186.25 5131.45,-181.73"/>
<polygon fill="#18191b" fill-opacity="0.627451" stroke="transparent" points="5259,-240 5259,-261 5305,-261 5305,-240 5259,-240"/>
<text text-anchor="start" x="5262" y="-246.3" font-family="Arial" font-size="14.00" fill="#c9c9c9">is_dev</text>
</g>
<!-- feature_card&#45;&gt;version -->
<g id="edge27" class="edge">
<title>feature_card&#45;&gt;version</title>
<path fill="none" stroke="#8d8d8d" stroke-width="2" stroke-dasharray="5,2" d="M5803.93,-320.86C5778.08,-306.15 5750.73,-292.11 5724,-281 5530.95,-200.75 5295.47,-147.96 5140.03,-118.83"/>
<polygon fill="#8d8d8d" stroke="#8d8d8d" stroke-width="2" points="5140.08,-116.17 5132.23,-117.38 5139.12,-121.33 5140.08,-116.17"/>
<polygon fill="#18191b" fill-opacity="0.627451" stroke="transparent" points="5665,-240 5665,-261 5711,-261 5711,-240 5665,-240"/>
<text text-anchor="start" x="5668" y="-246.3" font-family="Arial" font-size="14.00" fill="#c9c9c9">is_dev</text>
</g>
<!-- app&#45;&gt;comparison -->
<g id="edge1" class="edge">
<title>app&#45;&gt;comparison</title>
<path fill="none" stroke="#8d8d8d" stroke-width="2" stroke-dasharray="5,2" d="M2852.89,-752.14C2514.21,-736.5 1700.67,-692.98 1023,-610 946.92,-600.68 923.06,-612.08 853,-581 811.36,-562.53 770.73,-534.16 736.2,-505.91"/>
<polygon fill="#8d8d8d" stroke="#8d8d8d" stroke-width="2" points="737.73,-503.77 730.27,-501.01 734.38,-507.81 737.73,-503.77"/>
<polygon fill="#18191b" fill-opacity="0.627451" stroke="transparent" points="1023,-589 1023,-610 1103,-610 1103,-589 1023,-589"/>
<text text-anchor="start" x="1026" y="-595.3" font-family="Arial" font-size="14.00" fill="#c9c9c9">Comparison</text>
</g>
<!-- app&#45;&gt;dogfood_banner -->
<g id="edge2" class="edge">
<title>app&#45;&gt;dogfood_banner</title>
<path fill="none" stroke="#8d8d8d" stroke-width="2" stroke-dasharray="5,2" d="M2852.88,-755.62C2426.62,-745.3 1287.29,-708.71 1151,-610 1117.89,-586.02 1097.91,-546.24 1085.9,-508.6"/>
<polygon fill="#8d8d8d" stroke="#8d8d8d" stroke-width="2" points="1088.31,-507.51 1083.6,-501.11 1083.29,-509.05 1088.31,-507.51"/>
<polygon fill="#18191b" fill-opacity="0.627451" stroke="transparent" points="1151,-589 1151,-610 1252,-610 1252,-589 1151,-589"/>
<text text-anchor="start" x="1154.5" y="-595.3" font-family="Arial" font-size="14.00" fill="#c9c9c9">DogfoodBanner</text>
</g>
<!-- app&#45;&gt;features -->
<g id="edge3" class="edge">
<title>app&#45;&gt;features</title>
<path fill="none" stroke="#8d8d8d" stroke-width="2" stroke-dasharray="5,2" d="M2852.99,-750.55C2633.53,-736.07 2228.28,-698.95 1894,-610 1861.06,-601.23 1853.93,-595.32 1823,-581 1770.95,-556.9 1715.23,-528.8 1664.89,-502.51"/>
<polygon fill="#8d8d8d" stroke="#8d8d8d" stroke-width="2" points="1666,-500.13 1658.14,-498.98 1663.57,-504.78 1666,-500.13"/>
<polygon fill="#18191b" fill-opacity="0.627451" stroke="transparent" points="1894,-589 1894,-610 1954,-610 1954,-589 1894,-589"/>
<text text-anchor="start" x="1897" y="-595.3" font-family="Arial" font-size="14.00" fill="#c9c9c9">Features</text>
</g>
<!-- app&#45;&gt;footer -->
<g id="edge4" class="edge">
<title>app&#45;&gt;footer</title>
<path fill="none" stroke="#8d8d8d" stroke-width="2" stroke-dasharray="5,2" d="M2852.89,-734.27C2763.03,-713.61 2653.53,-676.36 2575,-610 2543.24,-583.16 2519.4,-544.43 2502.38,-508.32"/>
<polygon fill="#8d8d8d" stroke="#8d8d8d" stroke-width="2" points="2504.59,-506.85 2499.07,-501.14 2499.82,-509.05 2504.59,-506.85"/>
<polygon fill="#18191b" fill-opacity="0.627451" stroke="transparent" points="2575,-589 2575,-610 2621,-610 2621,-589 2575,-589"/>
<text text-anchor="start" x="2578" y="-595.3" font-family="Arial" font-size="14.00" fill="#c9c9c9">Footer</text>
</g>
<!-- app&#45;&gt;hero -->
<g id="edge5" class="edge">
<title>app&#45;&gt;hero</title>
<path fill="none" stroke="#8d8d8d" stroke-width="2" stroke-dasharray="5,2" d="M3173.2,-731.48C3273.81,-706.54 3376,-662.22 3327,-589 3268.87,-502.13 3159.48,-457.85 3065.71,-435.3"/>
<polygon fill="#8d8d8d" stroke="#8d8d8d" stroke-width="2" points="3066.03,-432.68 3058.13,-433.52 3064.83,-437.79 3066.03,-432.68"/>
<polygon fill="#18191b" fill-opacity="0.627451" stroke="transparent" points="3336,-589 3336,-610 3372,-610 3372,-589 3336,-589"/>
<text text-anchor="start" x="3339" y="-595.3" font-family="Arial" font-size="14.00" fill="#c9c9c9">Hero</text>
</g>
<!-- app&#45;&gt;install -->
<g id="edge6" class="edge">
<title>app&#45;&gt;install</title>
<path fill="none" stroke="#8d8d8d" stroke-width="2" stroke-dasharray="5,2" d="M3173.26,-747.8C3475.91,-724.93 4119.5,-667.6 4324,-581 4366.26,-563.11 4407.26,-534.63 4441.92,-506.12"/>
<polygon fill="#8d8d8d" stroke="#8d8d8d" stroke-width="2" points="4443.78,-507.98 4447.87,-501.17 4440.43,-503.95 4443.78,-507.98"/>
<polygon fill="#18191b" fill-opacity="0.627451" stroke="transparent" points="4287,-589 4287,-610 4329,-610 4329,-589 4287,-589"/>
<text text-anchor="start" x="4290" y="-595.3" font-family="Arial" font-size="14.00" fill="#c9c9c9">Install</text>
</g>
<!-- app&#45;&gt;version_switcher -->
<g id="edge7" class="edge">
<title>app&#45;&gt;version_switcher</title>
<path fill="none" stroke="#8d8d8d" stroke-width="2" stroke-dasharray="5,2" d="M3173.09,-755.55C3773.88,-741.84 5874.24,-686.75 6154,-581 6197.87,-564.42 6239.9,-535.47 6274.97,-506.16"/>
<polygon fill="#8d8d8d" stroke="#8d8d8d" stroke-width="2" points="6276.96,-507.92 6280.99,-501.08 6273.57,-503.92 6276.96,-507.92"/>
<polygon fill="#18191b" fill-opacity="0.627451" stroke="transparent" points="6103,-589 6103,-610 6206,-610 6206,-589 6103,-589"/>
<text text-anchor="start" x="6106.5" y="-595.3" font-family="Arial" font-size="14.00" fill="#c9c9c9">VersionSwitcher</text>
</g>
<!-- app&#45;&gt;walkthrough -->
<g id="edge8" class="edge">
<title>app&#45;&gt;walkthrough</title>
<path fill="none" stroke="#8d8d8d" stroke-width="2" stroke-dasharray="5,2" d="M3173.07,-758.49C3625.57,-755.15 4906.38,-732.25 5294,-581 5337.48,-564.03 5379.28,-535.17 5414.27,-506.06"/>
<polygon fill="#8d8d8d" stroke="#8d8d8d" stroke-width="2" points="5416.22,-507.84 5420.27,-501 5412.84,-503.83 5416.22,-507.84"/>
<polygon fill="#18191b" fill-opacity="0.627451" stroke="transparent" points="5264,-589 5264,-610 5465,-610 5465,-589 5264,-589"/>
<text text-anchor="start" x="5267.5" y="-595.3" font-family="Arial" font-size="14.00" fill="#c9c9c9">ServeWalkthrough, Walkthrough</text>
</g>
</g>
</svg>
