<?xml version="1.0" encoding="UTF-8" standalone="no"?>
<!DOCTYPE svg PUBLIC "-//W3C//DTD SVG 1.1//EN"
 "http://www.w3.org/Graphics/SVG/1.1/DTD/svg11.dtd">
<!-- Generated by graphviz version 2.43.0 (0)
 -->
<!-- Title: %3 Pages: 1 -->
<svg width="3553pt" height="1796pt"
 viewBox="0.00 0.00 3553.10 1795.60" xmlns="http://www.w3.org/2000/svg" xmlns:xlink="http://www.w3.org/1999/xlink">
<g id="graph0" class="graph" transform="scale(1 1) rotate(0) translate(15.05 1780.55)">
<title>%3</title>
<g id="clust1" class="cluster">
<title>cluster_playwright_rs</title>
<polygon fill="#194b9e" stroke="#1b3d88" points="390,-281 390,-1589 2930,-1589 2930,-281 390,-281"/>
<text text-anchor="start" x="398" y="-1577.2" font-family="Arial" font-weight="bold" font-size="11.00" fill="#bfdbfe" fill-opacity="0.701961">PLAYWRIGHT&#45;RS</text>
</g>
<!-- examples -->
<g id="node1" class="node">
<title>examples</title>
<polygon fill="#3b82f6" stroke="#2563eb" stroke-width="0" points="1803,-1509 1483,-1509 1483,-1329 1803,-1329 1803,-1509"/>
<text text-anchor="start" x="1600" y="-1414" font-family="Arial" font-size="20.00" fill="#eff6ff">examples</text>
</g>
<!-- tests -->
<g id="node2" class="node">
<title>tests</title>
<polygon fill="#3b82f6" stroke="#2563eb" stroke-width="0" points="1310,-1509 990,-1509 990,-1329 1310,-1329 1310,-1509"/>
<text text-anchor="start" x="1129" y="-1414" font-family="Arial" font-size="20.00" fill="#eff6ff">tests</text>
</g>
<!-- playwright_rs -->
<g id="node3" class="node">
<title>playwright_rs</title>
<polygon fill="#3b82f6" stroke="#2563eb" stroke-width="0" points="768,-837 430,-837 430,-657 768,-657 768,-837"/>
<text text-anchor="start" x="542" y="-769" font-family="Arial" font-size="20.00" fill="#eff6ff">playwright&#45;rs</text>
<text text-anchor="start" x="450" y="-747" font-family="Arial" font-size="15.00" fill="#bfdbfe">playwright&#45;rs CLI — bootstrap the Playwright</text>
<text text-anchor="start" x="537" y="-730" font-family="Arial" font-size="15.00" fill="#bfdbfe">driver into a stable</text>
<text text-anchor="start" x="491.5" y="-713" font-family="Arial" font-size="15.00" fill="#bfdbfe">user cache and install browsers.</text>
</g>
<!-- api -->
<g id="node4" class="node">
<title>api</title>
<polygon fill="#3b82f6" stroke="#2563eb" stroke-width="0" points="1086,-1173 766,-1173 766,-993 1086,-993 1086,-1173"/>
<text text-anchor="start" x="912" y="-1078" font-family="Arial" font-size="20.00" fill="#eff6ff">api</text>
</g>
<!-- assertions -->
<g id="node5" class="node">
<title>assertions</title>
<polygon fill="#3b82f6" stroke="#2563eb" stroke-width="0" points="2010,-1173 1690,-1173 1690,-993 2010,-993 2010,-1173"/>
<text text-anchor="start" x="1804.5" y="-1078" font-family="Arial" font-size="20.00" fill="#eff6ff">assertions</text>
</g>
<!-- protocol -->
<g id="node6" class="node">
<title>protocol</title>
<polygon fill="#3b82f6" stroke="#2563eb" stroke-width="0" points="2010,-837 1690,-837 1690,-657 2010,-657 2010,-837"/>
<text text-anchor="start" x="1814" y="-742" font-family="Arial" font-size="20.00" fill="#eff6ff">protocol</text>
</g>
<!-- server -->
<g id="node7" class="node">
<title>server</title>
<polygon fill="#3b82f6" stroke="#2563eb" stroke-width="0" points="1207,-501 887,-501 887,-321 1207,-321 1207,-501"/>
<text text-anchor="start" x="1019" y="-425" font-family="Arial" font-size="20.00" fill="#eff6ff">server</text>
<text text-anchor="start" x="907" y="-403" font-family="Arial" font-size="15.00" fill="#bfdbfe">Server management and connection layer</text>
<text text-anchor="start" x="1017" y="-386" font-family="Arial" font-size="15.00" fill="#bfdbfe">(internal)</text>
</g>
<!-- testing -->
<g id="node8" class="node">
<title>testing</title>
<polygon fill="#3b82f6" stroke="#2563eb" stroke-width="0" points="2172.5,-501 1833.5,-501 1833.5,-321 2172.5,-321 2172.5,-501"/>
<text text-anchor="start" x="1974" y="-425" font-family="Arial" font-size="20.00" fill="#eff6ff">testing</text>
<text text-anchor="start" x="1854" y="-403" font-family="Arial" font-size="15.00" fill="#bfdbfe">Opt&#45;in test fakes for browser APIs Playwright</text>
<text text-anchor="start" x="1933" y="-386" font-family="Arial" font-size="15.00" fill="#bfdbfe">cannot drive natively.</text>
</g>
<!-- tty_guard -->
<g id="node9" class="node">
<title>tty_guard</title>
<polygon fill="#3b82f6" stroke="#2563eb" stroke-width="0" points="2369,-1509 2049,-1509 2049,-1329 2369,-1329 2369,-1509"/>
<text text-anchor="start" x="2167" y="-1414" font-family="Arial" font-size="20.00" fill="#eff6ff">tty_guard</text>
</g>
<!-- driver_urls -->
<g id="node10" class="node">
<title>driver_urls</title>
<polygon fill="#3b82f6" stroke="#2563eb" stroke-width="0" points="750,-1509 430,-1509 430,-1329 750,-1329 750,-1509"/>
<text text-anchor="start" x="543" y="-1414" font-family="Arial" font-size="20.00" fill="#eff6ff">driver_urls</text>
</g>
<!-- error -->
<g id="node11" class="node">
<title>error</title>
<polygon fill="#3b82f6" stroke="#2563eb" stroke-width="0" points="2799,-1509 2479,-1509 2479,-1329 2799,-1329 2799,-1509"/>
<text text-anchor="start" x="2617.5" y="-1414" font-family="Arial" font-size="20.00" fill="#eff6ff">error</text>
</g>
<!-- playwright_rs_site_e2e -->
<g id="node12" class="node">
<title>playwright_rs_site_e2e</title>
<polygon fill="#3b82f6" stroke="#2563eb" stroke-width="0" points="3523,-1509 3203,-1509 3203,-1329 3523,-1329 3523,-1509"/>
<text text-anchor="start" x="3267" y="-1423" font-family="Arial" font-size="20.00" fill="#eff6ff">playwright&#45;rs&#45;site&#45;e2e</text>
<text text-anchor="start" x="3335" y="-1402.6" font-family="Arial" font-size="13.00" fill="#bfdbfe">test crate</text>
</g>
<!-- xtask -->
<g id="node13" class="node">
<title>xtask</title>
<polygon fill="#3b82f6" stroke="#2563eb" stroke-width="0" points="3326,-1173 3000,-1173 3000,-993 3326,-993 3326,-1173"/>
<text text-anchor="start" x="3140" y="-1106" font-family="Arial" font-size="20.00" fill="#eff6ff">xtask</text>
<text text-anchor="start" x="3144.5" y="-1085.6" font-family="Arial" font-size="13.00" fill="#bfdbfe">binary</text>
<text text-anchor="start" x="3020" y="-1066" font-family="Arial" font-size="15.00" fill="#bfdbfe">Workspace build&#45;tooling binary. See `cargo</text>
<text text-anchor="start" x="3119" y="-1049" font-family="Arial" font-size="15.00" fill="#bfdbfe">xtask &#45;&#45;help`.</text>
</g>
<!-- playwright_rs_trace -->
<g id="node14" class="node">
<title>playwright_rs_trace</title>
<polygon fill="#3b82f6" stroke="#2563eb" stroke-width="0" points="320,-1173 0,-1173 0,-993 320,-993 320,-1173"/>
<text text-anchor="start" x="77.5" y="-1131" font-family="Arial" font-size="20.00" fill="#eff6ff">playwright&#45;rs&#45;trace</text>
<text text-anchor="start" x="124.5" y="-1110.6" font-family="Arial" font-size="13.00" fill="#bfdbfe">library crate</text>
<text text-anchor="start" x="23" y="-1091" font-family="Arial" font-size="15.00" fill="#bfdbfe">Programmatic parser for [Playwright][pw]</text>
<text text-anchor="start" x="116" y="-1074" font-family="Arial" font-size="15.00" fill="#bfdbfe">trace zip files</text>
<text text-anchor="start" x="26" y="-1057" font-family="Arial" font-size="15.00" fill="#bfdbfe">(trace formats v8 and v9, v9 from 0.2.0;</text>
<text text-anchor="start" x="86.5" y="-1040" font-family="Arial" font-size="15.00" fill="#bfdbfe">verified against traces</text>
<text text-anchor="start" x="56" y="-1023" font-family="Arial" font-size="15.00" fill="#bfdbfe">recorded by the bundled driver,</text>
</g>
<!-- node_driver -->
<g id="node15" class="node">
<title>node_driver</title>
<polygon fill="#3b82f6" stroke="#2563eb" stroke-width="0" points="1216,-180 878,-180 878,0 1216,0 1216,-180"/>
<text text-anchor="start" x="973" y="-121" font-family="Arial" font-size="20.00" fill="#eff6ff">Playwright driver</text>
<text text-anchor="start" x="998.5" y="-100.6" font-family="Arial" font-size="13.00" fill="#bfdbfe">Node.js process</text>
<text text-anchor="start" x="901" y="-81" font-family="Arial" font-size="15.00" fill="#bfdbfe">The official Playwright server, assembled by</text>
<text text-anchor="start" x="898" y="-64" font-family="Arial" font-size="15.00" fill="#bfdbfe">build.rs from the pinned playwright&#45;core npm</text>
<text text-anchor="start" x="1016.5" y="-47" font-family="Arial" font-size="15.00" fill="#bfdbfe">package.</text>
</g>
<!-- examples&#45;&gt;api -->
<g id="edge4" class="edge">
<title>examples&#45;&gt;api</title>
<path fill="none" stroke="#8d8d8d" stroke-width="2" stroke-dasharray="5,2" d="M1482.98,-1343.46C1367.05,-1289.45 1210.67,-1216.61 1093.12,-1161.85"/>
<polygon fill="#8d8d8d" stroke="#8d8d8d" stroke-width="2" points="1094.05,-1159.39 1086.15,-1158.6 1091.84,-1164.15 1094.05,-1159.39"/>
<polygon fill="#18191b" fill-opacity="0.627451" stroke="transparent" points="1305,-1240.5 1305,-1261.5 1332,-1261.5 1332,-1240.5 1305,-1240.5"/>
<text text-anchor="start" x="1308.5" y="-1247.8" font-family="Arial" font-weight="bold" font-size="14.00" fill="#c9c9c9">[...]</text>
</g>
<!-- examples&#45;&gt;assertions -->
<g id="edge5" class="edge">
<title>examples&#45;&gt;assertions</title>
<path fill="none" stroke="#8d8d8d" stroke-width="2" stroke-dasharray="5,2" d="M1698.2,-1328.93C1726.74,-1282.88 1761.6,-1226.64 1790.71,-1179.67"/>
<polygon fill="#8d8d8d" stroke="#8d8d8d" stroke-width="2" points="1793.05,-1180.87 1794.77,-1173.11 1788.59,-1178.1 1793.05,-1180.87"/>
<polygon fill="#18191b" fill-opacity="0.627451" stroke="transparent" points="1752,-1233 1752,-1269 1981,-1269 1981,-1233 1752,-1233"/>
<text text-anchor="start" x="1755.5" y="-1254.8" font-family="Arial" font-size="14.00" fill="#c9c9c9">ScreenshotAssertionOptions, expect,</text>
<text text-anchor="start" x="1755.5" y="-1239.8" font-family="Arial" font-size="14.00" fill="#c9c9c9">expect_page</text>
</g>
<!-- examples&#45;&gt;protocol -->
<g id="edge6" class="edge">
<title>examples&#45;&gt;protocol</title>
<path fill="none" stroke="#8d8d8d" stroke-width="2" stroke-dasharray="5,2" d="M1648.38,-1328.95C1648.2,-1298.16 1645.69,-1263.7 1638,-1233 1630.76,-1204.08 1614.85,-1202.02 1608,-1173 1589.62,-1095.14 1577.61,-1067 1608,-993 1631.9,-934.79 1677.05,-883.03 1721.94,-842.26"/>
<polygon fill="#8d8d8d" stroke="#8d8d8d" stroke-width="2" points="1723.87,-844.06 1727.7,-837.09 1720.37,-840.15 1723.87,-844.06"/>
<polygon fill="#18191b" fill-opacity="0.627451" stroke="transparent" points="1608,-1072.5 1608,-1093.5 1635,-1093.5 1635,-1072.5 1608,-1072.5"/>
<text text-anchor="start" x="1611.5" y="-1079.8" font-family="Arial" font-weight="bold" font-size="14.00" fill="#c9c9c9">[...]</text>
</g>
<!-- examples&#45;&gt;server -->
<g id="edge7" class="edge">
<title>examples&#45;&gt;server</title>
<path fill="none" stroke="#8d8d8d" stroke-width="2" stroke-dasharray="5,2" d="M1482.65,-1364.39C1444.28,-1352.19 1403.32,-1339.69 1365,-1329 1077.16,-1248.72 896.17,-1407.53 711,-1173 661.43,-1110.21 664.17,-1057.86 711,-993 760.61,-924.29 820.99,-979.25 892,-933 940.25,-901.57 951.18,-887.41 979,-837 1032.51,-740.04 1030.68,-706.68 1046,-597 1049.98,-568.53 1051.3,-537.35 1051.33,-508.84"/>
<polygon fill="#8d8d8d" stroke="#8d8d8d" stroke-width="2" points="1053.95,-508.76 1051.31,-501.27 1048.7,-508.78 1053.95,-508.76"/>
<polygon fill="#18191b" fill-opacity="0.627451" stroke="transparent" points="938,-897 938,-933 1110,-933 1110,-897 938,-897"/>
<text text-anchor="start" x="941" y="-918.8" font-family="Arial" font-size="14.00" fill="#c9c9c9">install_browsers,</text>
<text text-anchor="start" x="941" y="-903.8" font-family="Arial" font-size="14.00" fill="#c9c9c9">install_browsers_with_deps</text>
</g>
<!-- tests&#45;&gt;api -->
<g id="edge8" class="edge">
<title>tests&#45;&gt;api</title>
<path fill="none" stroke="#8d8d8d" stroke-width="2" stroke-dasharray="5,2" d="M1090.27,-1328.93C1059.32,-1282.79 1021.51,-1226.41 989.97,-1179.38"/>
<polygon fill="#8d8d8d" stroke="#8d8d8d" stroke-width="2" points="992.12,-1177.88 985.76,-1173.11 987.76,-1180.8 992.12,-1177.88"/>
<polygon fill="#18191b" fill-opacity="0.627451" stroke="transparent" points="1044,-1240.5 1044,-1261.5 1071,-1261.5 1071,-1240.5 1044,-1240.5"/>
<text text-anchor="start" x="1047.5" y="-1247.8" font-family="Arial" font-weight="bold" font-size="14.00" fill="#c9c9c9">[...]</text>
</g>
<!-- tests&#45;&gt;assertions -->
<g id="edge9" class="edge">
<title>tests&#45;&gt;assertions</title>
<path fill="none" stroke="#8d8d8d" stroke-width="2" stroke-dasharray="5,2" d="M1301.8,-1328.91C1358.24,-1297.13 1423.31,-1262.04 1484,-1233 1547.76,-1202.5 1619.48,-1172.41 1682.43,-1147.35"/>
<polygon fill="#8d8d8d" stroke="#8d8d8d" stroke-width="2" points="1683.67,-1149.68 1689.67,-1144.47 1681.73,-1144.8 1683.67,-1149.68"/>
<polygon fill="#18191b" fill-opacity="0.627451" stroke="transparent" points="1484,-1233 1484,-1269 1713,-1269 1713,-1233 1484,-1233"/>
<text text-anchor="start" x="1487.5" y="-1254.8" font-family="Arial" font-size="14.00" fill="#c9c9c9">ScreenshotAssertionOptions, expect,</text>
<text text-anchor="start" x="1487.5" y="-1239.8" font-family="Arial" font-size="14.00" fill="#c9c9c9">expect_page</text>
</g>
<!-- tests&#45;&gt;protocol -->
<g id="edge11" class="edge">
<title>tests&#45;&gt;protocol</title>
<path fill="none" stroke="#8d8d8d" stroke-width="2" stroke-dasharray="5,2" d="M1182.67,-1328.67C1196.53,-1296.86 1214.5,-1261.81 1236,-1233 1359.44,-1067.54 1552.68,-927.62 1689.36,-841.22"/>
<polygon fill="#8d8d8d" stroke="#8d8d8d" stroke-width="2" points="1690.88,-843.36 1695.83,-837.15 1688.08,-838.92 1690.88,-843.36"/>
<polygon fill="#18191b" fill-opacity="0.627451" stroke="transparent" points="1469,-1072.5 1469,-1093.5 1496,-1093.5 1496,-1072.5 1469,-1072.5"/>
<text text-anchor="start" x="1472.5" y="-1079.8" font-family="Arial" font-weight="bold" font-size="14.00" fill="#c9c9c9">[...]</text>
</g>
<!-- tests&#45;&gt;server -->
<g id="edge12" class="edge">
<title>tests&#45;&gt;server</title>
<path fill="none" stroke="#8d8d8d" stroke-width="2" stroke-dasharray="5,2" d="M989.93,-1390.38C867.34,-1359.91 706.22,-1297.59 627,-1173 584.08,-1105.49 582.96,-1059.79 627,-993 664.27,-936.48 707.69,-965.63 767,-933 833.1,-896.63 861.7,-897.34 907,-837 980.49,-739.11 1016.55,-600.71 1033.42,-508.76"/>
<polygon fill="#8d8d8d" stroke="#8d8d8d" stroke-width="2" points="1036.05,-508.96 1034.8,-501.11 1030.88,-508.03 1036.05,-508.96"/>
<polygon fill="#18191b" fill-opacity="0.627451" stroke="transparent" points="838,-904.5 838,-925.5 865,-925.5 865,-904.5 838,-904.5"/>
<text text-anchor="start" x="841.5" y="-911.8" font-family="Arial" font-weight="bold" font-size="14.00" fill="#c9c9c9">[...]</text>
</g>
<!-- tests&#45;&gt;error -->
<g id="edge13" class="edge">
<title>tests&#45;&gt;error</title>
<path fill="none" stroke="#8d8d8d" stroke-width="2" stroke-dasharray="5,2" d="M1279.52,-1509.11C1324.46,-1535.39 1376.52,-1560.62 1428,-1574 1535.11,-1601.84 2318.69,-1608 2424,-1574 2463.57,-1561.22 2502,-1538.15 2535.16,-1513.64"/>
<polygon fill="#8d8d8d" stroke="#8d8d8d" stroke-width="2" points="2536.86,-1515.65 2541.29,-1509.05 2533.71,-1511.45 2536.86,-1515.65"/>
<polygon fill="#18191b" fill-opacity="0.627451" stroke="transparent" points="1898,-1597 1898,-1618 1980,-1618 1980,-1597 1898,-1597"/>
<text text-anchor="start" x="1901" y="-1603.3" font-family="Arial" font-size="14.00" fill="#c9c9c9">Error, Result</text>
</g>
<!-- tests&#45;&gt;playwright_rs_trace -->
<g id="edge10" class="edge">
<title>tests&#45;&gt;playwright_rs_trace</title>
<path fill="none" stroke="#8d8d8d" stroke-width="2" stroke-dasharray="5,2" d="M989.92,-1374.38C931.88,-1359.18 865.67,-1342.55 805,-1329 665.06,-1297.74 622.68,-1318.21 488,-1269 423.85,-1245.56 357.43,-1210.44 301.28,-1177.08"/>
<polygon fill="#8d8d8d" stroke="#8d8d8d" stroke-width="2" points="302.62,-1174.82 294.83,-1173.23 299.93,-1179.33 302.62,-1174.82"/>
<polygon fill="#18191b" fill-opacity="0.627451" stroke="transparent" points="488,-1240.5 488,-1261.5 515,-1261.5 515,-1240.5 488,-1240.5"/>
<text text-anchor="start" x="491.5" y="-1247.8" font-family="Arial" font-weight="bold" font-size="14.00" fill="#c9c9c9">[...]</text>
</g>
<!-- playwright_rs&#45;&gt;server -->
<g id="edge14" class="edge">
<title>playwright_rs&#45;&gt;server</title>
<path fill="none" stroke="#8d8d8d" stroke-width="2" stroke-dasharray="5,2" d="M621.88,-656.58C634.19,-623.09 652.47,-586.92 679,-561 733.71,-507.56 810.13,-472.45 879.15,-449.83"/>
<polygon fill="#8d8d8d" stroke="#8d8d8d" stroke-width="2" points="880.34,-452.2 886.67,-447.4 878.73,-447.21 880.34,-452.2"/>
<polygon fill="#18191b" fill-opacity="0.627451" stroke="transparent" points="679,-561 679,-597 851,-597 851,-561 679,-561"/>
<text text-anchor="start" x="682" y="-582.8" font-family="Arial" font-size="14.00" fill="#c9c9c9">install_browsers,</text>
<text text-anchor="start" x="682" y="-567.8" font-family="Arial" font-size="14.00" fill="#c9c9c9">install_browsers_with_deps</text>
</g>
<!-- api&#45;&gt;protocol -->
<g id="edge15" class="edge">
<title>api&#45;&gt;protocol</title>
<path fill="none" stroke="#8d8d8d" stroke-width="2" stroke-dasharray="5,2" d="M1082.14,-992.98C1144.76,-959.74 1218.47,-923.63 1288,-897 1417.25,-847.49 1569.26,-808.27 1682.58,-782.53"/>
<polygon fill="#8d8d8d" stroke="#8d8d8d" stroke-width="2" points="1683.26,-785.06 1689.99,-780.85 1682.1,-779.94 1683.26,-785.06"/>
<polygon fill="#18191b" fill-opacity="0.627451" stroke="transparent" points="1288,-904.5 1288,-925.5 1378,-925.5 1378,-904.5 1288,-904.5"/>
<text text-anchor="start" x="1291" y="-910.8" font-family="Arial" font-size="14.00" fill="#c9c9c9">ProxySettings</text>
</g>
<!-- assertions&#45;&gt;protocol -->
<g id="edge16" class="edge">
<title>assertions&#45;&gt;protocol</title>
<path fill="none" stroke="#8d8d8d" stroke-width="2" stroke-dasharray="5,2" d="M1850,-992.93C1850,-947.26 1850,-891.56 1850,-844.83"/>
<polygon fill="#8d8d8d" stroke="#8d8d8d" stroke-width="2" points="1852.63,-844.61 1850,-837.11 1847.38,-844.61 1852.63,-844.61"/>
<polygon fill="#18191b" fill-opacity="0.627451" stroke="transparent" points="1850,-904.5 1850,-925.5 1877,-925.5 1877,-904.5 1850,-904.5"/>
<text text-anchor="start" x="1853.5" y="-911.8" font-family="Arial" font-weight="bold" font-size="14.00" fill="#c9c9c9">[...]</text>
</g>
<!-- assertions&#45;&gt;error -->
<g id="edge17" class="edge">
<title>assertions&#45;&gt;error</title>
<path fill="none" stroke="#8d8d8d" stroke-width="2" stroke-dasharray="5,2" d="M2010.25,-1151.84C2144.47,-1208.66 2335.41,-1289.49 2471.6,-1347.14"/>
<polygon fill="#8d8d8d" stroke="#8d8d8d" stroke-width="2" points="2470.93,-1349.7 2478.86,-1350.21 2472.98,-1344.87 2470.93,-1349.7"/>
<polygon fill="#18191b" fill-opacity="0.627451" stroke="transparent" points="2268,-1240.5 2268,-1261.5 2350,-1261.5 2350,-1240.5 2268,-1240.5"/>
<text text-anchor="start" x="2271" y="-1246.8" font-family="Arial" font-size="14.00" fill="#c9c9c9">Error, Result</text>
</g>
<!-- protocol&#45;&gt;api -->
<g id="edge18" class="edge">
<title>protocol&#45;&gt;api</title>
<path fill="none" stroke="#8d8d8d" stroke-width="2" stroke-dasharray="5,2" d="M1689.77,-816.75C1584.64,-861.32 1456.68,-914.43 1401,-933 1299.97,-966.7 1270.68,-961.31 1169,-993 1144.3,-1000.7 1118.42,-1009.43 1093.13,-1018.36"/>
<polygon fill="#8d8d8d" stroke="#8d8d8d" stroke-width="2" points="1092.21,-1015.9 1086.02,-1020.88 1093.96,-1020.85 1092.21,-1015.9"/>
<polygon fill="#18191b" fill-opacity="0.627451" stroke="transparent" points="1487,-904.5 1487,-925.5 1514,-925.5 1514,-904.5 1487,-904.5"/>
<text text-anchor="start" x="1490.5" y="-911.8" font-family="Arial" font-weight="bold" font-size="14.00" fill="#c9c9c9">[...]</text>
</g>
<!-- protocol&#45;&gt;server -->
<g id="edge19" class="edge">
<title>protocol&#45;&gt;server</title>
<path fill="none" stroke="#8d8d8d" stroke-width="2" stroke-dasharray="5,2" d="M1689.94,-687.85C1618.28,-661.17 1533,-628.52 1457,-597 1376.46,-563.6 1288.19,-524.15 1214.25,-490.27"/>
<polygon fill="#8d8d8d" stroke="#8d8d8d" stroke-width="2" points="1215.05,-487.75 1207.14,-487.01 1212.86,-492.52 1215.05,-487.75"/>
<polygon fill="#18191b" fill-opacity="0.627451" stroke="transparent" points="1457,-568.5 1457,-589.5 1484,-589.5 1484,-568.5 1457,-568.5"/>
<text text-anchor="start" x="1460.5" y="-575.8" font-family="Arial" font-weight="bold" font-size="14.00" fill="#c9c9c9">[...]</text>
</g>
<!-- protocol&#45;&gt;testing -->
<g id="edge20" class="edge">
<title>protocol&#45;&gt;testing</title>
<path fill="none" stroke="#8d8d8d" stroke-width="2" stroke-dasharray="5,2" d="M1890.8,-656.93C1911.85,-610.98 1937.55,-554.87 1959.04,-507.96"/>
<polygon fill="#8d8d8d" stroke="#8d8d8d" stroke-width="2" points="1961.44,-509.02 1962.18,-501.11 1956.67,-506.83 1961.44,-509.02"/>
<polygon fill="#18191b" fill-opacity="0.627451" stroke="transparent" points="1931,-568.5 1931,-589.5 2035,-589.5 2035,-568.5 1931,-568.5"/>
<text text-anchor="start" x="1934" y="-574.8" font-family="Arial" font-size="14.00" fill="#c9c9c9">FakeFileSystem</text>
</g>
<!-- protocol&#45;&gt;tty_guard -->
<g id="edge21" class="edge">
<title>protocol&#45;&gt;tty_guard</title>
<path fill="none" stroke="#8d8d8d" stroke-width="2" stroke-dasharray="5,2" d="M1943.67,-837.23C1985.37,-880.99 2032.33,-936.39 2065,-993 2125.51,-1097.84 2165.62,-1231.98 2187.79,-1321.23"/>
<polygon fill="#8d8d8d" stroke="#8d8d8d" stroke-width="2" points="2185.28,-1322 2189.62,-1328.65 2190.38,-1320.74 2185.28,-1322"/>
<polygon fill="#18191b" fill-opacity="0.627451" stroke="transparent" points="2142,-1065 2142,-1101 2331,-1101 2331,-1065 2142,-1065"/>
<text text-anchor="start" x="2145.5" y="-1086.8" font-family="Arial" font-size="14.00" fill="#c9c9c9">install_signal_handler, restore,</text>
<text text-anchor="start" x="2145.5" y="-1071.8" font-family="Arial" font-size="14.00" fill="#c9c9c9">save_if_tty</text>
</g>
<!-- protocol&#45;&gt;error -->
<g id="edge22" class="edge">
<title>protocol&#45;&gt;error</title>
<path fill="none" stroke="#8d8d8d" stroke-width="2" stroke-dasharray="5,2" d="M2010.01,-799.73C2117.07,-840.09 2256.42,-904.27 2358,-993 2464.26,-1085.82 2547.2,-1227.97 2594.62,-1321.94"/>
<polygon fill="#8d8d8d" stroke="#8d8d8d" stroke-width="2" points="2592.4,-1323.38 2598.11,-1328.9 2597.1,-1321.02 2592.4,-1323.38"/>
<polygon fill="#18191b" fill-opacity="0.627451" stroke="transparent" points="2506,-1072.5 2506,-1093.5 2533,-1093.5 2533,-1072.5 2506,-1072.5"/>
<text text-anchor="start" x="2509.5" y="-1079.8" font-family="Arial" font-weight="bold" font-size="14.00" fill="#c9c9c9">[...]</text>
</g>
<!-- server&#45;&gt;protocol -->
<g id="edge23" class="edge">
<title>server&#45;&gt;protocol</title>
<path fill="none" stroke="#8d8d8d" stroke-width="2" stroke-dasharray="5,2" d="M1207.15,-456.08C1296.79,-482.68 1409.74,-519.43 1507,-561 1569.15,-587.57 1635.03,-621.57 1692.26,-653.16"/>
<polygon fill="#8d8d8d" stroke="#8d8d8d" stroke-width="2" points="1691,-655.47 1698.84,-656.8 1693.55,-650.87 1691,-655.47"/>
<polygon fill="#18191b" fill-opacity="0.627451" stroke="transparent" points="1584,-568.5 1584,-589.5 1611,-589.5 1611,-568.5 1584,-568.5"/>
<text text-anchor="start" x="1587.5" y="-575.8" font-family="Arial" font-weight="bold" font-size="14.00" fill="#c9c9c9">[...]</text>
</g>
<!-- server&#45;&gt;driver_urls -->
<g id="edge24" class="edge">
<title>server&#45;&gt;driver_urls</title>
<path fill="none" stroke="#8d8d8d" stroke-width="2" stroke-dasharray="5,2" d="M979.56,-501.09C947.62,-546.14 910.71,-602.67 884,-657 846.73,-732.8 886.62,-781.43 823,-837 717.63,-929.03 603,-789.06 514,-897 415.08,-1016.98 481.18,-1207.56 536.67,-1321.93"/>
<polygon fill="#8d8d8d" stroke="#8d8d8d" stroke-width="2" points="534.32,-1323.09 539.97,-1328.67 539.03,-1320.78 534.32,-1323.09"/>
<polygon fill="#18191b" fill-opacity="0.627451" stroke="transparent" points="514,-897 514,-933 740,-933 740,-897 514,-897"/>
<text text-anchor="start" x="517" y="-918.8" font-family="Arial" font-size="14.00" fill="#c9c9c9">cached_driver_dir, node_exe_name,</text>
<text text-anchor="start" x="517" y="-903.8" font-family="Arial" font-size="14.00" fill="#c9c9c9">playwright_platform</text>
</g>
<!-- server&#45;&gt;error -->
<g id="edge26" class="edge">
<title>server&#45;&gt;error</title>
<path fill="none" stroke="#8d8d8d" stroke-width="2" stroke-dasharray="5,2" d="M1207.16,-430.5C1473.5,-462.01 1985.87,-526.07 2062,-561 2328.31,-683.19 2414.41,-738.73 2560,-993 2618.31,-1094.83 2634.86,-1230.81 2638.91,-1321.24"/>
<polygon fill="#8d8d8d" stroke="#8d8d8d" stroke-width="2" points="2636.29,-1321.37 2639.22,-1328.76 2641.54,-1321.15 2636.29,-1321.37"/>
<polygon fill="#18191b" fill-opacity="0.627451" stroke="transparent" points="2524,-904.5 2524,-925.5 2551,-925.5 2551,-904.5 2524,-904.5"/>
<text text-anchor="start" x="2527.5" y="-911.8" font-family="Arial" font-weight="bold" font-size="14.00" fill="#c9c9c9">[...]</text>
</g>
<!-- server&#45;&gt;node_driver -->
<g id="edge25" class="edge">
<title>server&#45;&gt;node_driver</title>
<path fill="none" stroke="#8d8d8d" stroke-width="2" stroke-dasharray="5,2" d="M1047,-320.72C1047,-279.33 1047,-230.07 1047,-187.8"/>
<polygon fill="#8d8d8d" stroke="#8d8d8d" stroke-width="2" points="1049.63,-187.76 1047,-180.26 1044.38,-187.76 1049.63,-187.76"/>
<polygon fill="#18191b" fill-opacity="0.627451" stroke="transparent" points="1047,-240 1047,-261 1074,-261 1074,-240 1047,-240"/>
<text text-anchor="start" x="1050.5" y="-247.3" font-family="Arial" font-weight="bold" font-size="14.00" fill="#c9c9c9">[...]</text>
</g>
<!-- testing&#45;&gt;protocol -->
<g id="edge27" class="edge">
<title>testing&#45;&gt;protocol</title>
<path fill="none" stroke="#8d8d8d" stroke-width="2" stroke-dasharray="5,2" d="M1894.81,-501.24C1879.17,-519.32 1865.25,-539.46 1856,-561 1844.3,-588.24 1840.26,-619.88 1839.87,-649.2"/>
<polygon fill="#8d8d8d" stroke="#8d8d8d" stroke-width="2" points="1837.24,-649.49 1839.85,-657 1842.49,-649.5 1837.24,-649.49"/>
<polygon fill="#18191b" fill-opacity="0.627451" stroke="transparent" points="1856,-568.5 1856,-589.5 1894,-589.5 1894,-568.5 1856,-568.5"/>
<text text-anchor="start" x="1859" y="-574.8" font-family="Arial" font-size="14.00" fill="#c9c9c9">Page</text>
</g>
<!-- testing&#45;&gt;error -->
<g id="edge28" class="edge">
<title>testing&#45;&gt;error</title>
<path fill="none" stroke="#8d8d8d" stroke-width="2" stroke-dasharray="5,2" d="M2172.75,-428.21C2352.64,-448.83 2620.69,-490.5 2694,-561 2836.89,-698.41 2780.14,-796.33 2805,-993 2820.38,-1114.7 2854.98,-1156.98 2805,-1269 2796.29,-1288.53 2783.61,-1306.56 2769.08,-1322.84"/>
<polygon fill="#8d8d8d" stroke="#8d8d8d" stroke-width="2" points="2766.79,-1321.46 2763.65,-1328.76 2770.66,-1325.01 2766.79,-1321.46"/>
<polygon fill="#18191b" fill-opacity="0.627451" stroke="transparent" points="2799,-904.5 2799,-925.5 2881,-925.5 2881,-904.5 2799,-904.5"/>
<text text-anchor="start" x="2802" y="-910.8" font-family="Arial" font-size="14.00" fill="#c9c9c9">Error, Result</text>
</g>
<!-- playwright_rs_site_e2e&#45;&gt;assertions -->
<g id="edge1" class="edge">
<title>playwright_rs_site_e2e&#45;&gt;assertions</title>
<path fill="none" stroke="#8d8d8d" stroke-width="2" stroke-dasharray="5,2" d="M3202.75,-1381.43C3128.18,-1364.79 3038.2,-1345.22 2957,-1329 2765.68,-1290.77 2281.3,-1224.07 2093,-1173 2068.33,-1166.31 2042.63,-1158.2 2017.57,-1149.63"/>
<polygon fill="#8d8d8d" stroke="#8d8d8d" stroke-width="2" points="2018.12,-1147.04 2010.17,-1147.08 2016.41,-1152 2018.12,-1147.04"/>
<polygon fill="#18191b" fill-opacity="0.627451" stroke="transparent" points="2584,-1240.5 2584,-1261.5 2715,-1261.5 2715,-1240.5 2584,-1240.5"/>
<text text-anchor="start" x="2587.5" y="-1246.8" font-family="Arial" font-size="14.00" fill="#c9c9c9">expect, expect_page</text>
</g>
<!-- playwright_rs_site_e2e&#45;&gt;protocol -->
<g id="edge2" class="edge">
<title>playwright_rs_site_e2e&#45;&gt;protocol</title>
<path fill="none" stroke="#8d8d8d" stroke-width="2" stroke-dasharray="5,2" d="M3397.08,-1328.88C3426.5,-1235.41 3453.9,-1089.03 3381,-993 3218.79,-779.32 2381,-749.86 2018.02,-747.29"/>
<polygon fill="#8d8d8d" stroke="#8d8d8d" stroke-width="2" points="2017.84,-744.66 2010.33,-747.24 2017.81,-749.91 2017.84,-744.66"/>
<polygon fill="#18191b" fill-opacity="0.627451" stroke="transparent" points="3427,-1072.5 3427,-1093.5 3454,-1093.5 3454,-1072.5 3427,-1072.5"/>
<text text-anchor="start" x="3430.5" y="-1079.8" font-family="Arial" font-weight="bold" font-size="14.00" fill="#c9c9c9">[...]</text>
</g>
<!-- xtask&#45;&gt;protocol -->
<g id="edge3" class="edge">
<title>xtask&#45;&gt;protocol</title>
<path fill="none" stroke="#8d8d8d" stroke-width="2" stroke-dasharray="5,2" d="M3068.4,-992.98C3025.35,-957.44 2971.82,-919.65 2917,-897 2757.91,-831.27 2276.01,-783.04 2017.74,-761.12"/>
<polygon fill="#8d8d8d" stroke="#8d8d8d" stroke-width="2" points="2017.85,-758.49 2010.16,-760.47 2017.41,-763.72 2017.85,-758.49"/>
<polygon fill="#18191b" fill-opacity="0.627451" stroke="transparent" points="2983,-904.5 2983,-925.5 3010,-925.5 3010,-904.5 2983,-904.5"/>
<text text-anchor="start" x="2986.5" y="-911.8" font-family="Arial" font-weight="bold" font-size="14.00" fill="#c9c9c9">[...]</text>
</g>
</g>
</svg>
